<svg xmlns="http://www.w3.org/2000/svg" xmlns:xlink="http://www.w3.org/1999/xlink" viewBox="0,0,256,256" width="100px" height="100px" fill-rule="evenodd"><g transform=""><g fill="#ffffff" fill-rule="evenodd" stroke="none" stroke-width="1" stroke-linecap="butt" stroke-linejoin="miter" stroke-miterlimit="10" stroke-dasharray="" stroke-dashoffset="0" font-family="none" font-weight="none" font-size="none" text-anchor="none" style="mix-blend-mode: normal"><g transform="translate(0,-25.6) scale(5.12,5.12)"><path d="M42,6l-3,34l-14,4l-14,-4l-3,-34zM16.80078,28h4l0.09766,2.5l4.10156,1.39844l4.10156,-1.39844l0.29688,-4.5h-8.79687l-0.20312,-4h9.20313l0.29688,-4h-13.79687l-0.30078,-4h18.30078l-0.5,8l-0.70312,11.5l-7.89844,2.60156l-7.89844,-2.60156z"></path></g></g><g fill="#ffffff" fill-rule="nonzero" stroke="none" stroke-width="1" stroke-linecap="butt" stroke-linejoin="miter" stroke-miterlimit="10" stroke-dasharray="" stroke-dashoffset="0" font-family="none" font-weight="none" font-size="none" text-anchor="none" style="mix-blend-mode: normal"><g id="text"><path d="M99.125,237.69h9c-0.34,4.7 -2.07667,8.4 -5.21,11.1c-3.12667,2.7 -7.25,4.05 -12.37,4.05v0c-5.6,0 -10.00667,-1.88667 -13.22,-5.66c-3.20667,-3.76667 -4.81,-8.94 -4.81,-15.52v0v-2.67c0,-4.2 0.74,-7.9 2.22,-11.1c1.48,-3.2 3.59333,-5.65333 6.34,-7.36c2.75333,-1.71333 5.95,-2.57 9.59,-2.57v0c5.04,0 9.1,1.35 12.18,4.05c3.08,2.7 4.86,6.49 5.34,11.37v0h-9c-0.22,-2.82 -1.00667,-4.86333 -2.36,-6.13c-1.34667,-1.27333 -3.4,-1.91 -6.16,-1.91v0c-3,0 -5.24667,1.07667 -6.74,3.23c-1.48667,2.14667 -2.25,5.48 -2.29,10v0v3.3c0,4.72 0.71333,8.17 2.14,10.35c1.43333,2.18 3.69,3.27 6.77,3.27v0c2.78,0 4.85333,-0.63667 6.22,-1.91c1.37333,-1.26667 2.16,-3.23 2.36,-5.89zM136.685,240.78v0c0,-1.7 -0.6,-3.00667 -1.8,-3.92c-1.2,-0.90667 -3.36,-1.86333 -6.48,-2.87c-3.12,-1.01333 -5.59,-2.01 -7.41,-2.99v0c-4.96,-2.68 -7.44,-6.29 -7.44,-10.83v0c0,-2.36 0.66333,-4.46667 1.99,-6.32c1.33333,-1.84667 3.24333,-3.29 5.73,-4.33c2.49333,-1.04 5.29,-1.56 8.39,-1.56v0c3.12,0 5.9,0.56333 8.34,1.69c2.44,1.13333 4.33333,2.73 5.68,4.79c1.35333,2.06 2.03,4.4 2.03,7.02v0h-9c0,-2 -0.63,-3.55667 -1.89,-4.67c-1.26,-1.10667 -3.03,-1.66 -5.31,-1.66v0c-2.2,0 -3.91,0.46667 -5.13,1.4c-1.22,0.92667 -1.83,2.15 -1.83,3.67v0c0,1.42 0.71333,2.61 2.14,3.57c1.43333,0.96 3.54,1.86 6.32,2.7v0c5.12,1.54 8.85,3.45 11.19,5.73c2.34,2.28 3.51,5.12 3.51,8.52v0c0,3.78 -1.43,6.74333 -4.29,8.89c-2.86,2.15333 -6.71,3.23 -11.55,3.23v0c-3.36,0 -6.42,-0.61333 -9.18,-1.84c-2.76,-1.23333 -4.86667,-2.92 -6.32,-5.06c-1.44667,-2.14 -2.17,-4.62 -2.17,-7.44v0h9.03c0,4.82 2.88,7.23 8.64,7.23v0c2.14,0 3.81,-0.43333 5.01,-1.3c1.2,-0.87333 1.8,-2.09 1.8,-3.65zM174.455,240.78v0c0,-1.7 -0.6,-3.00667 -1.8,-3.92c-1.2,-0.90667 -3.36,-1.86333 -6.48,-2.87c-3.12,-1.01333 -5.59,-2.01 -7.41,-2.99v0c-4.96,-2.68 -7.44,-6.29 -7.44,-10.83v0c0,-2.36 0.66667,-4.46667 2,-6.32c1.32667,-1.84667 3.23333,-3.29 5.72,-4.33c2.49333,-1.04 5.29,-1.56 8.39,-1.56v0c3.12,0 5.9,0.56333 8.34,1.69c2.44,1.13333 4.33667,2.73 5.69,4.79c1.34667,2.06 2.02,4.4 2.02,7.02v0h-9c0,-2 -0.63,-3.55667 -1.89,-4.67c-1.26,-1.10667 -3.03,-1.66 -5.31,-1.66v0c-2.2,0 -3.91,0.46667 -5.13,1.4c-1.22,0.92667 -1.83,2.15 -1.83,3.67v0c0,1.42 0.71333,2.61 2.14,3.57c1.43333,0.96 3.54,1.86 6.32,2.7v0c5.12,1.54 8.85,3.45 11.19,5.73c2.34,2.28 3.51,5.12 3.51,8.52v0c0,3.78 -1.43,6.74333 -4.29,8.89c-2.86,2.15333 -6.71,3.23 -11.55,3.23v0c-3.36,0 -6.42,-0.61333 -9.18,-1.84c-2.76,-1.23333 -4.86333,-2.92 -6.31,-5.06c-1.45333,-2.14 -2.18,-4.62 -2.18,-7.44v0h9.03c0,4.82 2.88,7.23 8.64,7.23v0c2.14,0 3.81,-0.43333 5.01,-1.3c1.2,-0.87333 1.8,-2.09 1.8,-3.65z"></path></g></g></g></svg>