<?xml version="1.0" encoding="UTF-8" standalone="no" ?>
<!DOCTYPE svg PUBLIC "-//W3C//DTD SVG 1.1//EN" "http://www.w3.org/Graphics/SVG/1.1/DTD/svg11.dtd">
<svg xmlns="http://www.w3.org/2000/svg" xmlns:xlink="http://www.w3.org/1999/xlink" version="1.1" width="360" height="360" viewBox="0 0 480 480" xml:space="preserve">
<desc>Created with Fabric.js 3.6.3</desc>
<defs>
</defs>
<g transform="matrix(1.53 0 0 1.53 240.61 268.05)"  >
<g style=""   >
		<g transform="matrix(3.94 0 0 3.94 0.25 -39.18)"  >
<path style="stroke: rgb(255,255,255); stroke-opacity: 0; stroke-width: 4; stroke-dasharray: none; stroke-linecap: butt; stroke-dashoffset: 0; stroke-linejoin: miter; stroke-miterlimit: 4; fill: rgb(255,255,255); fill-rule: nonzero; opacity: 1;" vector-effect="non-scaling-stroke"  transform=" translate(-44.67, -34.09)" d="M 12.886 39.463 c 0 -1.326 -0.45 -2.27 -1.354 -2.83 s -2.188 -0.84 -3.896 -0.84 v -4.9 c 0.848 0 1.6 -0.06 2.256 -0.185 c 0.67 -0.137 1.23 -0.35 1.682 -0.636 c 0.45 -0.3 0.786 -0.684 1.005 -1.148 c 0.232 -0.465 0.335 -1.025 0.308 -1.682 v -6.52 c 0 -1.012 0.13 -1.873 0.4 -2.584 a 3.52 3.52 0 0 1 1.395 -1.764 c 0.684 -0.465 1.606 -0.807 2.77 -1.025 s 2.64 -0.328 4.43 -0.328 v 4.614 c -0.547 0.014 -1.046 0.062 -1.497 0.144 c -0.438 0.082 -0.813 0.232 -1.128 0.45 c -0.3 0.205 -0.533 0.492 -0.697 0.86 s -0.246 0.848 -0.246 1.436 v 6.132 c -0.082 2.557 -1.682 4.074 -4.8 4.553 v 0.246 c 1.572 0.232 2.775 0.725 3.6 1.477 s 1.23 1.77 1.2 3.056 v 6.132 c 0 0.588 0.082 1.066 0.246 1.436 s 0.396 0.656 0.697 0.86 c 0.314 0.22 0.7 0.37 1.128 0.45 a 9.77 9.77 0 0 0 1.497 0.144 v 4.635 c -1.8 0 -3.268 -0.1 -4.43 -0.328 s -2.085 -0.56 -2.77 -1.025 a 3.52 3.52 0 0 1 -1.395 -1.764 c -0.26 -0.725 -0.4 -1.593 -0.4 -2.605 v -6.46 m 11.67 2.604 c 0 -0.643 0.1 -1.183 0.267 -1.62 c 0.2 -0.45 0.45 -0.813 0.78 -1.087 s 0.7 -0.472 1.148 -0.595 a 5.21 5.21 0 0 1 1.415 -0.185 a 4.83 4.83 0 0 1 1.354 0.185 c 0.437 0.123 0.82 0.32 1.148 0.595 s 0.588 0.636 0.78 1.087 c 0.2 0.438 0.287 0.978 0.287 1.62 c 0 0.615 -0.096 1.142 -0.287 1.58 s -0.45 0.8 -0.78 1.087 a 2.92 2.92 0 0 1 -1.148 0.615 c -0.424 0.137 -0.875 0.205 -1.354 0.205 c -0.506 0 -0.978 -0.068 -1.415 -0.205 a 2.92 2.92 0 0 1 -1.148 -0.615 a 3.05 3.05 0 0 1 -0.78 -1.087 c -0.178 -0.437 -0.267 -0.964 -0.267 -1.58 M 36.126 55.1 a 14.96 14.96 0 0 1 -2.03 -0.144 c -0.697 -0.096 -1.278 -0.22 -1.743 -0.37 v -4.922 a 7.46 7.46 0 0 0 1.189 0.287 c 0.37 0.068 0.786 0.102 1.25 0.102 a 2.81 2.81 0 0 0 0.964 -0.164 a 1.61 1.61 0 0 0 0.8 -0.554 c 0.232 -0.26 0.417 -0.615 0.554 -1.066 c 0.137 -0.437 0.205 -1.005 0.205 -1.702 V 22.072 h 6.255 v 25.4 c 0 1.053 -0.137 2.037 -0.4 2.953 c -0.26 0.93 -0.7 1.736 -1.292 2.42 c -0.588 0.697 -1.354 1.244 -2.297 1.64 s -2.092 0.595 -3.445 0.595 m 0.923 -38.944 c 0 -0.588 0.1 -1.073 0.267 -1.456 a 2.49 2.49 0 0 1 0.718 -0.943 a 2.76 2.76 0 0 1 1.087 -0.513 a 6.02 6.02 0 0 1 1.333 -0.144 a 5.77 5.77 0 0 1 1.313 0.144 c 0.4 0.096 0.766 0.267 1.066 0.513 c 0.314 0.232 0.56 0.547 0.738 0.943 c 0.2 0.383 0.287 0.868 0.287 1.456 c 0 0.574 -0.096 1.06 -0.287 1.456 c -0.178 0.397 -0.424 0.718 -0.738 0.964 c -0.3 0.232 -0.656 0.403 -1.066 0.513 c -0.4 0.096 -0.848 0.144 -1.312 0.144 a 6.03 6.03 0 0 1 -1.333 -0.144 a 3.19 3.19 0 0 1 -1.087 -0.513 c -0.3 -0.246 -0.54 -0.567 -0.718 -0.964 s -0.267 -0.882 -0.267 -1.456 M 65.3 38.192 c 0 1.203 -0.22 2.256 -0.656 3.158 a 6.09 6.09 0 0 1 -1.866 2.256 c -0.807 0.6 -1.784 1.053 -2.933 1.353 s -2.434 0.45 -3.855 0.45 c -0.752 0 -1.45 -0.027 -2.092 -0.082 a 14.49 14.49 0 0 1 -1.825 -0.226 l -1.66 -0.4 a 13.95 13.95 0 0 1 -1.62 -0.615 V 38.9 c 0.574 0.287 1.176 0.547 1.805 0.78 l 1.907 0.615 l 1.825 0.4 c 0.602 0.096 1.155 0.144 1.66 0.144 c 0.56 0 1.04 -0.048 1.436 -0.144 a 2.76 2.76 0 0 0 0.964 -0.43 a 1.66 1.66 0 0 0 0.554 -0.656 c 0.123 -0.26 0.185 -0.533 0.185 -0.82 s -0.048 -0.54 -0.144 -0.76 c -0.082 -0.232 -0.28 -0.472 -0.595 -0.718 c -0.314 -0.26 -0.78 -0.547 -1.395 -0.86 l -2.44 -1.2 l -2.604 -1.333 c -0.725 -0.45 -1.326 -0.95 -1.805 -1.497 c -0.465 -0.547 -0.813 -1.17 -1.046 -1.866 s -0.35 -1.552 -0.35 -2.522 c 0 -1.066 0.205 -1.996 0.615 -2.8 c 0.4 -0.807 1 -1.477 1.743 -2 s 1.654 -0.93 2.707 -1.2 c 1.066 -0.273 2.25 -0.4 3.548 -0.4 c 1.367 0 2.666 0.157 3.896 0.472 s 2.495 0.786 3.794 1.415 L 63.156 28 a 26.72 26.72 0 0 0 -2.974 -1.21 c -0.943 -0.314 -1.887 -0.472 -2.83 -0.472 c -0.848 0 -1.463 0.15 -1.846 0.45 c -0.37 0.3 -0.554 0.7 -0.554 1.23 c 0 0.273 0.048 0.52 0.144 0.738 c 0.096 0.205 0.287 0.424 0.574 0.656 c 0.287 0.22 0.7 0.465 1.2 0.738 l 2.03 0.964 l 2.625 1.27 c 0.78 0.4 1.45 0.882 2 1.415 s 1 1.155 1.292 1.866 s 0.45 1.572 0.45 2.584 m 11.163 7.694 c 0 1.012 -0.13 1.88 -0.4 2.605 s -0.73 1.313 -1.415 1.764 c -0.67 0.465 -1.586 0.807 -2.748 1.025 s -2.64 0.328 -4.43 0.328 V 47 a 9.41 9.41 0 0 0 1.477 -0.144 c 0.437 -0.082 0.807 -0.232 1.107 -0.45 a 1.94 1.94 0 0 0 0.718 -0.861 c 0.178 -0.37 0.267 -0.848 0.267 -1.436 v -6.132 c -0.04 -1.285 0.355 -2.304 1.2 -3.056 s 2.03 -1.244 3.6 -1.477 v -0.246 c -3.104 -0.48 -4.696 -1.996 -4.778 -4.553 v -6.132 c 0 -0.588 -0.1 -1.066 -0.267 -1.436 a 1.94 1.94 0 0 0 -0.718 -0.861 c -0.3 -0.22 -0.67 -0.37 -1.107 -0.45 a 9.6 9.6 0 0 0 -1.477 -0.144 v -4.614 c 1.8 0 3.268 0.1 4.43 0.328 s 2.078 0.56 2.748 1.025 c 0.684 0.45 1.155 1.04 1.415 1.764 c 0.26 0.7 0.4 1.572 0.4 2.584 v 6.52 c -0.014 0.656 0.1 1.217 0.308 1.682 s 0.554 0.848 1.005 1.148 c 0.45 0.287 1.005 0.5 1.66 0.636 c 0.67 0.123 1.43 0.185 2.276 0.185 v 4.9 c -1.7 0 -3.015 0.28 -3.917 0.84 c -0.9 0.56 -1.333 1.504 -1.333 2.83 v 6.46" stroke-linecap="round" />
</g>
		<g transform="matrix(3.94 0 0 3.94 0 89.34)"  >
<path style="stroke: rgb(255,255,255); stroke-width: 0; stroke-dasharray: none; stroke-linecap: butt; stroke-dashoffset: 0; stroke-linejoin: miter; stroke-miterlimit: 4; fill: rgb(255,255,255); fill-rule: nonzero; opacity: 1;" vector-effect="non-scaling-stroke"  transform=" translate(-44.97, -75.53)" d="M 6.745 83.42 c -0.3 0 -0.56 -0.02 -0.782 -0.062 c -0.223 -0.035 -0.416 -0.085 -0.58 -0.15 V 81.8 a 4.91 4.91 0 0 0 0.642 0.123 a 4.88 4.88 0 0 0 0.738 0.053 a 2.5 2.5 0 0 0 0.65 -0.088 a 1.44 1.44 0 0 0 0.598 -0.299 c 0.182 -0.147 0.328 -0.35 0.44 -0.606 s 0.167 -0.586 0.167 -0.984 V 67.15 h 1.644 v 12.674 c 0 0.615 -0.088 1.148 -0.264 1.6 a 2.92 2.92 0 0 1 -0.721 1.116 a 2.78 2.78 0 0 1 -1.107 0.659 c -0.428 0.147 -1.012 0.22 -1.533 0.22 m 11.793 -4.755 h -0.07 a 5.92 5.92 0 0 1 -0.58 0.686 a 2.84 2.84 0 0 1 -0.633 0.466 a 2.84 2.84 0 0 1 -0.765 0.273 c -0.282 0.06 -0.606 0.088 -0.976 0.088 c -0.404 0 -0.776 -0.06 -1.116 -0.176 a 2.21 2.21 0 0 1 -0.888 -0.52 c -0.246 -0.24 -0.44 -0.54 -0.58 -0.896 c -0.14 -0.363 -0.2 -0.8 -0.2 -1.283 c 0 -0.96 0.337 -1.7 1 -2.215 c 0.68 -0.516 1.7 -0.797 3.094 -0.844 l 1.617 -0.062 v -0.606 c 0 -0.393 -0.044 -0.72 -0.132 -0.984 c -0.082 -0.264 -0.205 -0.475 -0.37 -0.633 a 1.33 1.33 0 0 0 -0.598 -0.352 a 2.83 2.83 0 0 0 -0.809 -0.105 a 4.3 4.3 0 0 0 -1.362 0.21 a 8.73 8.73 0 0 0 -1.204 0.51 l -0.562 -1.204 c 0.434 -0.234 0.917 -0.434 1.45 -0.598 a 5.68 5.68 0 0 1 1.679 -0.246 c 0.598 0 1.113 0.062 1.547 0.185 c 0.44 0.117 0.8 0.308 1.08 0.57 a 2.36 2.36 0 0 1 0.642 0.993 c 0.142 0.403 0.2 0.894 0.2 1.468 V 80 H 18.75 z m -2.6 0.215 a 2.88 2.88 0 0 0 0.993 -0.167 a 2.12 2.12 0 0 0 0.79 -0.5 c 0.223 -0.228 0.396 -0.513 0.52 -0.852 c 0.13 -0.346 0.193 -0.75 0.193 -1.213 v -0.87 l -1.257 0.062 c -0.527 0.023 -0.97 0.082 -1.327 0.176 s -0.645 0.226 -0.86 0.396 c -0.2 0.164 -0.363 0.366 -0.457 0.606 a 2.14 2.14 0 0 0 -0.141 0.8 c 0 0.54 0.14 0.935 0.422 1.187 c 0.287 0.252 0.662 0.378 1.125 0.378 m 5.42 -8.532 h 1.652 l 1.75 5.37 l 0.23 0.747 l 0.264 0.932 l 0.237 0.896 l 0.15 0.642 h 0.062 l 0.15 -0.642 l 0.237 -0.896 l 0.264 -0.932 l 0.23 -0.747 l 1.75 -5.37 h 1.652 L 26.575 80 h -2.03 z m 15.157 8.314 h -0.07 a 5.92 5.92 0 0 1 -0.58 0.686 a 2.84 2.84 0 0 1 -1.398 0.739 c -0.282 0.06 -0.606 0.088 -0.976 0.088 c -0.404 0 -0.776 -0.06 -1.116 -0.176 a 2.21 2.21 0 0 1 -0.888 -0.52 c -0.246 -0.24 -0.44 -0.54 -0.58 -0.896 c -0.14 -0.363 -0.2 -0.8 -0.2 -1.283 c 0 -0.96 0.337 -1.7 1 -2.215 c 0.68 -0.516 1.7 -0.797 3.094 -0.844 l 1.617 -0.062 v -0.606 c 0 -0.393 -0.044 -0.72 -0.132 -0.984 c -0.082 -0.264 -0.205 -0.475 -0.37 -0.633 a 1.33 1.33 0 0 0 -0.598 -0.352 a 2.83 2.83 0 0 0 -0.809 -0.105 a 4.3 4.3 0 0 0 -1.362 0.21 a 8.73 8.73 0 0 0 -1.204 0.51 l -0.562 -1.204 c 0.434 -0.234 0.917 -0.434 1.45 -0.598 a 5.68 5.68 0 0 1 1.68 -0.246 c 0.598 0 1.113 0.062 1.547 0.185 c 0.44 0.117 0.8 0.308 1.08 0.57 a 2.36 2.36 0 0 1 0.642 0.993 c 0.142 0.403 0.2 0.894 0.2 1.468 V 80 h -1.15 z m -2.6 0.22 a 2.88 2.88 0 0 0 0.993 -0.167 a 2.12 2.12 0 0 0 0.79 -0.5 c 0.223 -0.23 0.396 -0.513 0.52 -0.852 c 0.13 -0.346 0.193 -0.75 0.193 -1.213 v -0.87 l -1.257 0.062 c -0.527 0.023 -0.97 0.082 -1.327 0.176 s -0.645 0.226 -0.86 0.396 c -0.2 0.164 -0.363 0.366 -0.457 0.606 a 2.14 2.14 0 0 0 -0.141 0.8 c 0 0.54 0.14 0.935 0.422 1.187 c 0.287 0.252 0.662 0.378 1.125 0.378 m 13.933 -2.323 c 0 0.568 -0.103 1.078 -0.308 1.53 a 3.09 3.09 0 0 1 -0.861 1.134 c -0.375 0.3 -0.832 0.548 -1.37 0.712 c -0.54 0.158 -1.146 0.237 -1.82 0.237 a 10.06 10.06 0 0 1 -1.828 -0.158 c -0.563 -0.1 -1.034 -0.25 -1.415 -0.448 v -1.564 l 0.677 0.28 l 0.8 0.237 l 0.87 0.176 a 6.71 6.71 0 0 0 0.888 0.062 c 0.937 0 1.63 -0.176 2.074 -0.527 c 0.45 -0.352 0.677 -0.855 0.677 -1.512 a 2.35 2.35 0 0 0 -0.132 -0.826 c -0.082 -0.234 -0.23 -0.448 -0.448 -0.642 c -0.2 -0.2 -0.495 -0.4 -0.853 -0.57 a 12.33 12.33 0 0 0 -1.354 -0.606 a 8.44 8.44 0 0 1 -1.362 -0.668 c -0.38 -0.246 -0.697 -0.522 -0.95 -0.826 c -0.246 -0.305 -0.43 -0.65 -0.554 -1.037 c -0.117 -0.387 -0.176 -0.826 -0.176 -1.318 c 0 -0.516 0.094 -0.975 0.28 -1.38 a 2.82 2.82 0 0 1 0.791 -1.02 a 3.53 3.53 0 0 1 1.213 -0.642 c 0.475 -0.146 0.996 -0.22 1.564 -0.22 c 0.697 0 1.324 0.067 1.88 0.202 c 0.557 0.13 1.052 0.296 1.485 0.5 l -0.6 1.37 c -0.38 -0.17 -0.814 -0.316 -1.3 -0.44 a 5.74 5.74 0 0 0 -1.494 -0.193 c -0.715 0 -1.27 0.167 -1.66 0.5 a 1.67 1.67 0 0 0 -0.6 1.336 c 0 0.334 0.044 0.624 0.132 0.87 a 1.76 1.76 0 0 0 0.439 0.659 c 0.205 0.193 0.475 0.378 0.8 0.554 c 0.34 0.17 0.756 0.352 1.248 0.545 a 11.57 11.57 0 0 1 1.397 0.65 a 4.18 4.18 0 0 1 1.011 0.756 a 2.73 2.73 0 0 1 0.606 0.976 c 0.14 0.37 0.215 0.822 0.215 1.326 m 5.953 3.597 c -0.592 0 -1.146 -0.1 -1.66 -0.273 a 3.46 3.46 0 0 1 -1.345 -0.88 c -0.38 -0.404 -0.68 -0.917 -0.896 -1.538 c -0.217 -0.627 -0.325 -1.38 -0.325 -2.26 c 0 -0.92 0.1 -1.7 0.334 -2.338 c 0.223 -0.645 0.527 -1.166 0.914 -1.564 a 3.52 3.52 0 0 1 1.37 -0.88 c 0.52 -0.183 1.08 -0.273 1.68 -0.273 a 5.96 5.96 0 0 1 1.336 0.149 a 4.92 4.92 0 0 1 1.099 0.369 l -0.475 1.354 c -0.135 -0.06 -0.284 -0.114 -0.448 -0.167 a 5.1 5.1 0 0 0 -0.5 -0.15 c -0.176 -0.047 -0.35 -0.082 -0.52 -0.105 a 2.88 2.88 0 0 0 -0.483 -0.044 c -0.92 0 -1.6 0.296 -2.013 0.888 c -0.422 0.586 -0.633 1.5 -0.633 2.742 c 0 1.236 0.2 2.142 0.633 2.716 c 0.428 0.568 1.075 0.852 1.942 0.852 a 4.82 4.82 0 0 0 1.283 -0.158 a 7.35 7.35 0 0 0 1.055 -0.387 v 1.424 a 4.21 4.21 0 0 1 -1.02 0.387 c -0.357 0.088 -0.82 0.132 -1.342 0.132 m 8.77 -9.998 l 0.57 0.026 a 4.07 4.07 0 0 1 0.545 0.062 l -0.2 1.477 l -0.5 -0.07 c -0.17 -0.024 -0.33 -0.035 -0.483 -0.035 c -0.37 0 -0.706 0.076 -1 0.228 a 2.24 2.24 0 0 0 -0.791 0.642 a 2.9 2.9 0 0 0 -0.5 1.002 a 4.45 4.45 0 0 0 -0.176 1.292 V 80 h -1.6 v -9.65 h 1.3 l 0.193 1.767 h 0.07 l 0.466 -0.73 a 3.5 3.5 0 0 1 0.563 -0.615 a 2.55 2.55 0 0 1 0.703 -0.431 a 2.36 2.36 0 0 1 0.906 -0.167 M 66.9 80 h -1.6 v -9.65 h 1.6 V 80 m -1.46 -13.025 a 0.98 0.98 0 0 1 0.668 -0.237 a 1 1 0 0 1 0.36 0.062 a 0.7 0.7 0 0 1 0.299 0.176 a 0.8 0.8 0 0 1 0.202 0.316 c 0.053 0.123 0.08 0.273 0.08 0.448 c 0 0.34 -0.094 0.595 -0.28 0.765 c -0.182 0.164 -0.4 0.246 -0.66 0.246 s -0.493 -0.123 -0.675 -0.288 c -0.176 -0.164 -0.26 -0.42 -0.258 -0.744 c 0.001 -0.33 0.1 -0.586 0.265 -0.744 z m 8.805 13.2 a 3.59 3.59 0 0 1 -0.94 -0.114 c -0.28 -0.076 -0.536 -0.176 -0.765 -0.3 a 3.06 3.06 0 0 1 -0.598 -0.448 a 4.34 4.34 0 0 1 -0.457 -0.536 h -0.105 l 0.053 0.57 l 0.035 0.475 l 0.018 0.378 v 4.122 h -1.6 V 70.35 h 1.3 l 0.23 1.3 h 0.07 a 3.91 3.91 0 0 1 0.457 -0.571 a 2.55 2.55 0 0 1 0.589 -0.466 a 3.08 3.08 0 0 1 0.765 -0.316 a 3.39 3.39 0 0 1 0.949 -0.123 c 0.55 0 1.052 0.105 1.503 0.316 s 0.835 0.527 1.15 0.95 c 0.322 0.416 0.57 0.935 0.747 1.556 s 0.264 1.342 0.264 2.162 c 0 0.826 -0.088 1.553 -0.264 2.18 c -0.176 0.62 -0.425 1.143 -0.747 1.564 c -0.316 0.422 -0.7 0.74 -1.15 0.958 c -0.45 0.2 -1.063 0.316 -1.614 0.316 m -0.197 -8.675 c -0.445 0 -0.823 0.067 -1.134 0.202 c -0.305 0.135 -0.554 0.34 -0.747 0.615 s -0.328 0.618 -0.422 1.028 a 7.78 7.78 0 0 0 -0.149 1.45 v 0.36 a 9.83 9.83 0 0 0 0.114 1.582 c 0.082 0.457 0.217 0.844 0.404 1.16 a 1.94 1.94 0 0 0 0.765 0.712 c 0.316 0.158 0.712 0.237 1.187 0.237 c 0.8 0 1.37 -0.32 1.74 -0.958 s 0.562 -1.556 0.563 -2.75 c 0 -1.22 -0.188 -2.13 -0.562 -2.733 s -0.955 -0.905 -1.758 -0.905 m 9.3 7.365 c 0.105 0 0.223 -0.01 0.352 -0.018 l 0.387 -0.044 l 0.334 -0.062 l 0.237 -0.062 v 1.213 c -0.076 0.035 -0.173 0.07 -0.3 0.105 a 3.29 3.29 0 0 1 -0.387 0.088 c -0.14 0.03 -0.287 0.05 -0.44 0.062 a 3.81 3.81 0 0 1 -0.448 0.026 c -0.363 0 -0.7 -0.047 -1 -0.14 a 1.92 1.92 0 0 1 -0.81 -0.483 c -0.223 -0.23 -0.398 -0.536 -0.527 -0.923 c -0.13 -0.393 -0.193 -0.885 -0.193 -1.477 v -5.6 h -1.362 v -0.712 l 1.362 -0.686 l 0.686 -2.022 h 0.923 v 2.215 H 84.5 v 1.204 h -2.426 v 5.6 c 0 0.568 0.1 0.996 0.272 1.283 s 0.492 0.43 0.914 0.43" stroke-linecap="round" />
</g>
		<g transform="matrix(3.94 0 0 3.94 -49.66 -33.62)"  >
<path style="stroke: rgb(0,0,0); stroke-width: 4; stroke-dasharray: none; stroke-linecap: butt; stroke-dashoffset: 0; stroke-linejoin: miter; stroke-miterlimit: 4; fill: none; fill-rule: nonzero; opacity: 1;" vector-effect="non-scaling-stroke"  transform=" translate(-82.5, -57)" d="M 82.5 57 L 82.5 57 L 82.5 57" stroke-linecap="round" />
</g>
</g>
</g>
</svg>