<svg xmlns="http://www.w3.org/2000/svg" xmlns:xlink="http://www.w3.org/1999/xlink" viewBox="0,0,256,256" width="100px" height="100px" fill-rule="nonzero"><g transform="translate(20.48,20.48) scale(0.84,0.84)"><g fill="#ffffff" fill-rule="nonzero" stroke="none" stroke-width="1" stroke-linecap="butt" stroke-linejoin="miter" stroke-miterlimit="10" stroke-dasharray="" stroke-dashoffset="0" font-family="none" font-weight="none" font-size="none" text-anchor="none" style="mix-blend-mode: normal"><g transform="translate(-0.00435,-35.83718) scale(5.12,5.12)"><path d="M29.86719,3.00781c-0.10547,0.01563 -0.21094,0.04688 -0.3125,0.09375c-0.85937,0.42578 -1.83594,1.69141 -2.02344,1.94141c-0.01172,0.01563 -0.02344,0.03125 -0.03125,0.04688c-0.96484,1.44531 -1.48047,3.13672 -1.5,4.89844c-0.01172,1.32031 0.24609,2.62891 0.76953,3.89063c1.21875,2.92578 3.75,5.34766 6.76172,6.48047c0.10156,0.03516 0.19922,0.07031 0.375,0.13281c0.01563,0.00781 0.16406,0.05469 0.1875,0.05859l0.10938,0.03906c0.15625,0.05078 0.31641,0.10156 0.47266,0.13281c0.79297,0.16016 1.56641,0.25 2.29297,0.27344c0.125,0 0.25,0.00391 0.375,0.00391c5.48047,0 7.60547,-3.86719 8.3125,-5.15625c0.07031,-0.125 0.12109,-0.22656 0.16797,-0.28906c0,-0.00391 0,-0.00391 0.00391,-0.00781c0.30859,-0.45703 0.19141,-1.07812 -0.26562,-1.39062c-0.45312,-0.30859 -1.07422,-0.19141 -1.38672,0.26563h-0.00391c-1.46094,2.15234 -3.96094,2.80469 -7.42578,1.94531c-0.25781,-0.0625 -0.53906,-0.16016 -0.78906,-0.25391c-0.32812,-0.11719 -0.65625,-0.25391 -0.96094,-0.40234c-0.60547,-0.30078 -1.17578,-0.66016 -1.69141,-1.05859c-3.04687,-2.36328 -4.23828,-7.28125 -2.45703,-10.12109c0.23828,-0.37891 0.19531,-0.87109 -0.10547,-1.20312c-0.22656,-0.25 -0.55469,-0.36328 -0.875,-0.32031zM21.00781,5c-0.22656,-0.00391 -0.45703,0.07031 -0.64453,0.22656c-1.51172,1.23047 -3.05859,3.24609 -3.125,3.32813c-0.00781,0.01563 -0.01562,0.02734 -0.02734,0.04297c-2.73437,3.98047 -2.94141,9.64453 -0.52344,14.42969c0.37891,0.75781 0.80859,1.48047 1.26563,2.14453l0.13672,0.19531c0.38672,0.56641 0.82031,1.20703 1.375,1.70703c0.19141,0.21875 0.39844,0.42969 0.60156,0.63281l0.09766,0.10156l0.08203,0.08203c0.20703,0.19922 0.41797,0.40234 0.63672,0.59766h0.00391c0.01563,0.02344 0.03906,0.03906 0.05859,0.05859c0.24609,0.21875 0.49609,0.42578 0.82813,0.6875l0.08984,0.06641c0.25781,0.20703 0.51953,0.40234 0.78906,0.59375c0.02734,0.01953 0.05469,0.03906 0.08203,0.05859c0.09375,0.0625 0.1875,0.12109 0.28125,0.1875l0.09375,0.0625l0.10938,0.07031c0.19922,0.13281 0.39453,0.25391 0.67188,0.41406c0.17969,0.10938 0.37109,0.21875 0.49609,0.28125c0.05469,0.03125 0.11328,0.0625 0.25,0.13672l0.30469,0.16016c0.01563,0.00781 0.08594,0.03906 0.10156,0.04688c0.19922,0.10156 0.40625,0.19922 0.61328,0.29297l0.31641,0.14063c0.20703,0.08984 0.41797,0.17578 0.67578,0.27344l0.11719,0.04297c0.00781,0.00781 0.10547,0.04297 0.11328,0.04688c0.1875,0.06641 0.37891,0.13281 0.57031,0.19531l0.4375,0.14453c0.21875,0.07422 0.47266,0.16016 0.75,0.20703c1.36328,0.22656 2.6875,0.34375 3.94141,0.34375c0.14844,0 0.29688,-0.00391 0.44141,-0.00391c11.03906,-0.24219 13.91016,-9.62109 13.9375,-9.71484c0.13672,-0.47266 -0.08594,-0.97656 -0.53125,-1.1875c-0.44531,-0.21094 -0.97656,-0.0625 -1.25391,0.34375c-2.79687,4.08594 -8.08594,5.8125 -13.47266,4.39063c-0.25,-0.0625 -0.49219,-0.13281 -0.79297,-0.23047c-0.05078,-0.01562 -0.09375,-0.03125 -0.17578,-0.0625c-0.17578,-0.05469 -0.34766,-0.11328 -0.54297,-0.1875l-0.27734,-0.10547c-0.16016,-0.0625 -0.32031,-0.125 -0.51562,-0.21094l-0.12891,-0.05859c-0.23828,-0.10156 -0.46875,-0.21484 -0.67578,-0.31641l-0.57031,-0.29687c-0.12891,-0.0625 -0.24219,-0.13281 -0.41797,-0.23828l-0.09766,-0.05469l-0.09766,-0.05859c-0.14453,-0.08594 -0.28906,-0.17578 -0.42187,-0.26953l-0.09375,-0.05859c-0.00781,-0.00391 -0.08594,-0.05859 -0.09375,-0.06641c-0.11719,-0.07422 -0.23047,-0.14844 -0.33984,-0.21875c-0.24219,-0.17187 -0.48047,-0.35156 -0.75781,-0.57031l-0.10937,-0.08984c-2.57812,-2.05859 -4.48437,-4.80859 -5.37891,-7.75781c-0.83203,-2.70703 -0.21484,-6.25 1.65234,-9.47656c0.24219,-0.41797 0.15234,-0.94922 -0.21875,-1.26172c-0.18359,-0.15625 -0.41016,-0.23828 -0.63672,-0.23828zM10.00391,8c-0.23828,0 -0.48047,0.08594 -0.67187,0.25781c-1.91016,1.71484 -3.33984,3.9375 -3.49609,4.19141c-4.08594,5.94922 -3.29687,15.19531 -0.49219,20.84766c0.05469,0.11719 0.11328,0.23047 0.17188,0.34375l0.03906,0.0625c0.05078,0.11328 0.10938,0.23047 0.12891,0.25391c0.03125,0.07422 0.07813,0.15625 0.09766,0.17969c0.04688,0.09766 0.09375,0.18359 0.17969,0.33203l0.32031,0.55078c0.04688,0.07422 0.09375,0.15234 0.10938,0.17969c0.0625,0.10156 0.12891,0.20703 0.19531,0.3125l0.15625,0.25c0.04688,0.07422 0.09375,0.14063 0.125,0.17969c0.15625,0.24219 0.3125,0.48438 0.48438,0.71484c0.00781,0.01172 0.01563,0.01953 0.02344,0.02734l0.0625,0.08594c0.14063,0.20313 0.28516,0.39844 0.41406,0.55859l0.57031,0.72266c0.00781,0.00781 0.07031,0.08203 0.07422,0.08984l0.08203,0.09375c0.17188,0.21094 0.35547,0.42188 0.53906,0.625c0.02734,0.03125 0.05469,0.05859 0.08203,0.08984c0.17578,0.19141 0.35547,0.38281 0.54297,0.58203l0.17969,0.17188c0.14844,0.15625 0.29688,0.30859 0.45313,0.45313c0,0.00391 0.07422,0.07422 0.07422,0.07422l0.15625,0.14453c0.1875,0.17969 0.38281,0.35938 0.53125,0.48438c0.00781,0.01172 0.14844,0.13281 0.16016,0.14063c0.18359,0.16406 0.36719,0.32031 0.55469,0.47266l0.95703,0.75781c0.16016,0.11719 0.32422,0.23438 0.51172,0.37109c0.0625,0.04688 0.12891,0.09375 0.19531,0.13672c0.02734,0.02344 0.05859,0.04688 0.07813,0.05859l0.71875,0.48047c0.26172,0.17188 0.52344,0.33203 0.84375,0.52344l0.17188,0.09766c0.19922,0.11719 0.40234,0.23438 0.59375,0.33594c0.11328,0.0625 0.22656,0.11719 0.32422,0.16797c0.13672,0.07422 0.28516,0.15625 0.51172,0.26563c0.01953,0.01172 0.17969,0.08984 0.19922,0.09766c0.22656,0.11328 0.45703,0.21875 0.74609,0.34766c0,0.00391 0.09375,0.04688 0.09375,0.04688c0.26563,0.11328 0.52344,0.22266 0.86328,0.35938c0.05469,0.02344 0.10938,0.04297 0.12109,0.04688c0.24219,0.09375 0.49609,0.1875 0.70313,0.26172c0.01953,0.00781 0.125,0.05078 0.14453,0.05859c0.27734,0.09375 0.55078,0.18359 0.90234,0.29297c0.05859,0.01953 0.12109,0.03906 0.12891,0.03906l0.19922,0.0625c0.24219,0.07422 0.48438,0.15234 0.74609,0.20313c1.85938,0.33984 3.67578,0.51563 5.39453,0.51563h0.00391c14.32422,0 18.88672,-11.52734 18.93359,-11.64453c0.17578,-0.46484 -0.01562,-0.98828 -0.45312,-1.23047c-0.42969,-0.23828 -0.97656,-0.125 -1.28125,0.26953c-3.67578,4.83984 -10.60937,6.63672 -18.54687,4.8125c-0.19141,-0.04687 -0.38672,-0.10156 -0.57812,-0.16016l-0.375,-0.11328c-0.25391,-0.07812 -0.50781,-0.16406 -0.75391,-0.25c-0.00391,0 -0.11719,-0.04297 -0.11719,-0.04297c-0.21875,-0.07422 -0.4375,-0.16016 -0.62891,-0.23437l-0.21875,-0.08594c-0.24219,-0.09766 -0.48437,-0.19922 -0.71875,-0.30469l-0.13672,-0.05859c-0.21094,-0.09766 -0.41406,-0.19141 -0.61719,-0.29297c-0.01562,-0.00781 -0.17578,-0.08594 -0.19141,-0.08984c-0.14062,-0.07031 -0.28125,-0.14453 -0.46094,-0.24219l-0.81641,-0.4375c-0.08203,-0.05469 -0.16797,-0.10547 -0.25,-0.14844c-0.24609,-0.15234 -0.5,-0.30469 -0.75,-0.46484c-0.05859,-0.03516 -0.10937,-0.07422 -0.20703,-0.14062c-0.17187,-0.10937 -0.33984,-0.22266 -0.58594,-0.39453l-0.09766,-0.07031c-0.16797,-0.11719 -0.33203,-0.24219 -0.46875,-0.34375c-0.08594,-0.0625 -0.17187,-0.13281 -0.3125,-0.23828c-0.125,-0.09766 -0.25,-0.19141 -0.36719,-0.28516l-0.21875,-0.17969c-0.18359,-0.14844 -0.35547,-0.30469 -0.53516,-0.45703c-0.02344,-0.02344 -0.04297,-0.03906 -0.07031,-0.05859c-0.19922,-0.18359 -0.40234,-0.36719 -0.64453,-0.59766l-0.70703,-0.70312c-0.17187,-0.17578 -0.34375,-0.35547 -0.53906,-0.57031c-0.17969,-0.19922 -0.35156,-0.39844 -0.58203,-0.67187l-0.42187,-0.51562c-0.05078,-0.07422 -0.10547,-0.14844 -0.17187,-0.22656c-0.14453,-0.19531 -0.28906,-0.38672 -0.43359,-0.58984c-3.89062,-5.35937 -4.90625,-16.54687 -1.875,-20.64453c0.30469,-0.41016 0.25,-0.98828 -0.13281,-1.33594c-0.1875,-0.17187 -0.42969,-0.25781 -0.66797,-0.25781z"></path></g></g><g fill="#ffffff" fill-rule="nonzero" stroke="none" stroke-width="1" stroke-linecap="butt" stroke-linejoin="miter" stroke-miterlimit="10" stroke-dasharray="" stroke-dashoffset="0" font-family="none" font-weight="none" font-size="none" text-anchor="none" style="mix-blend-mode: normal"><g id="text"><path d="M49.895,247.905v-30.24h9v30.24c0,2.78 -0.61667,5.23333 -1.85,7.36c-1.22667,2.13333 -2.96,3.78 -5.2,4.94c-2.24,1.16 -4.77,1.74 -7.59,1.74v0c-4.62,0 -8.22,-1.17333 -10.8,-3.52c-2.58,-2.35333 -3.87,-5.68 -3.87,-9.98v0h9.06c0,2.14 0.45,3.72 1.35,4.74c0.9,1.02 2.32,1.53 4.26,1.53v0c1.72,0 3.09,-0.59 4.11,-1.77c1.02,-1.18 1.53,-2.86 1.53,-5.04zM102.425,238.545v1.95c0,4.08 -0.66,7.62333 -1.98,10.63c-1.32,3.01333 -3.15,5.43 -5.49,7.25v0l7.26,5.7l-5.73,5.07l-9.3,-7.47c-1.06,0.18 -2.16,0.27 -3.3,0.27v0c-3.62,0 -6.85,-0.87 -9.69,-2.61c-2.84,-1.74 -5.04,-4.22667 -6.6,-7.46c-1.56,-3.22667 -2.35,-6.94 -2.37,-11.14v0v-2.16c0,-4.3 0.77333,-8.08667 2.32,-11.36c1.55333,-3.26667 3.74333,-5.77667 6.57,-7.53c2.83333,-1.74667 6.07,-2.62 9.71,-2.62c3.64,0 6.87333,0.87333 9.7,2.62c2.83333,1.75333 5.02667,4.26333 6.58,7.53c1.54667,3.27333 2.32,7.05 2.32,11.33zM93.305,240.645v-2.13c0,-4.58 -0.82,-8.06 -2.46,-10.44c-1.64,-2.38 -3.98,-3.57 -7.02,-3.57v0c-3.02,0 -5.35,1.17667 -6.99,3.53c-1.64,2.34667 -2.47,5.79 -2.49,10.33v0v2.13c0,4.46 0.82,7.92 2.46,10.38c1.64,2.46 4,3.69 7.08,3.69v0c3.02,0 5.34,-1.18667 6.96,-3.56c1.62,-2.36667 2.44,-5.82 2.46,-10.36zM128.135,261.345l-0.24,-3.3c-2.14,2.6 -5.1,3.9 -8.88,3.9v0c-3.48,0 -6.13333,-1 -7.96,-3c-1.83333,-2 -2.77,-4.93 -2.81,-8.79v0v-21.27h8.67v20.97c0,3.38 1.54,5.07 4.62,5.07v0c2.94,0 4.96,-1.02 6.06,-3.06v0v-22.98h8.7v32.46zM157.775,261.945v0c-4.76,0 -8.63333,-1.46 -11.62,-4.38c-2.99333,-2.92 -4.49,-6.81 -4.49,-11.67v0v-0.84c0,-3.26 0.63,-6.17333 1.89,-8.74c1.26,-2.57333 3.04667,-4.55667 5.36,-5.95c2.30667,-1.38667 4.94,-2.08 7.9,-2.08v0c4.44,0 7.93333,1.4 10.48,4.2c2.55333,2.8 3.83,6.77 3.83,11.91v0v3.54h-20.67c0.28,2.12 1.12667,3.82 2.54,5.1c1.40667,1.28 3.19,1.92 5.35,1.92v0c3.34,0 5.95,-1.21 7.83,-3.63v0l4.26,4.77c-1.3,1.84 -3.06,3.27333 -5.28,4.3c-2.22,1.03333 -4.68,1.55 -7.38,1.55zM156.785,235.305v0c-1.72,0 -3.11333,0.58 -4.18,1.74c-1.07333,1.16 -1.76,2.82 -2.06,4.98v0h12.06v-0.69c-0.04,-1.92 -0.56,-3.40667 -1.56,-4.46c-1,-1.04667 -2.42,-1.57 -4.26,-1.57zM194.405,228.675l-0.12,8.34c-1.18,-0.16 -2.22,-0.24 -3.12,-0.24v0c-3.28,0 -5.43,1.11 -6.45,3.33v0v21.24h-8.67v-32.46h8.19l0.24,3.87c1.74,-2.98 4.15,-4.47 7.23,-4.47v0c0.96,0 1.86,0.13 2.7,0.39zM205.085,228.885l6.03,20.19l6,-20.19h9.3l-13.05,37.5l-0.72,1.71c-1.94,4.24 -5.14,6.36 -9.6,6.36v0c-1.26,0 -2.54,-0.19 -3.84,-0.57v0v-6.57l1.32,0.03c1.64,0 2.86333,-0.25 3.67,-0.75c0.81333,-0.5 1.45,-1.33 1.91,-2.49v0l1.02,-2.67l-11.37,-32.55z"></path></g></g></g></svg>