<?xml version="1.0" encoding="UTF-8" standalone="no" ?>
<!DOCTYPE svg PUBLIC "-//W3C//DTD SVG 1.1//EN" "http://www.w3.org/Graphics/SVG/1.1/DTD/svg11.dtd">
<svg xmlns="http://www.w3.org/2000/svg" xmlns:xlink="http://www.w3.org/1999/xlink" version="1.1" width="360" height="360" viewBox="0 0 480 480" xml:space="preserve">
<desc>Created with Fabric.js 3.6.3</desc>
<defs>
</defs>
<g transform="matrix(1.18 0 0 1.18 240.27 236.27)"  >
<g style=""   >
		<g transform="matrix(2.75 0 0 2.75 4 -43.91)"  >
<circle style="stroke: rgb(255,255,255); stroke-opacity: 0; stroke-width: 1; stroke-dasharray: none; stroke-linecap: butt; stroke-dashoffset: 0; stroke-linejoin: miter; stroke-miterlimit: 4; fill: rgb(255,255,255); fill-rule: nonzero; opacity: 1;"  cx="0" cy="0" r="9.3" />
</g>
		<g transform="matrix(2.75 0 0 2.75 0 0)"  >
<path style="stroke: rgb(255,255,255); stroke-opacity: 0; stroke-width: 1; stroke-dasharray: none; stroke-linecap: butt; stroke-dashoffset: 0; stroke-linejoin: miter; stroke-miterlimit: 4; fill: rgb(255,255,255); fill-rule: nonzero; opacity: 1;"  transform=" translate(-64, -64.19)" d="M 64 81.7 c 7.3 7.1 14.5 11.3 20.3 11.3 c 1.9 0 3.7 -0.4 5.2 -1.3 c 5.2 -3 7.1 -10.5 5.3 -21.2 c -0.3 -1.9 -0.7 -3.8 -1.2 -5.8 c 2 -0.6 3.8 -1.2 5.6 -1.8 c 10.1 -3.9 15.7 -9.3 15.7 -15.2 c 0 -6 -5.6 -11.4 -15.7 -15.2 c -1.8 -0.7 -3.6 -1.3 -5.6 -1.8 c 0.5 -2 0.9 -3.9 1.2 -5.8 c 1.7 -10.9 -0.2 -18.5 -5.4 -21.5 c -1.5 -0.9 -3.3 -1.3 -5.2 -1.3 c -5.7 0 -13 4.2 -20.3 11.3 c -7.2 -7.1 -14.4 -11.3 -20.2 -11.3 c -1.9 0 -3.7 0.4 -5.2 1.3 c -5.2 3 -7.1 10.5 -5.3 21.2 c 0.3 1.9 0.7 3.8 1.2 5.8 c -2 0.6 -3.8 1.2 -5.6 1.8 c -10.1 3.9 -15.7 9.3 -15.7 15.2 c 0 6 5.6 11.4 15.7 15.2 c 1.8 0.7 3.6 1.3 5.6 1.8 c -0.5 2 -0.9 3.9 -1.2 5.8 c -1.7 10.7 0.2 18.3 5.3 21.2 c 1.5 0.9 3.3 1.3 5.2 1.3 c 5.8 0.2 13 -4 20.3 -11 z m -5.6 -13.5 c 1.8 0.1 3.7 0.1 5.6 0.1 c 1.9 0 3.8 0 5.6 -0.1 c -1.8 2.4 -3.7 4.6 -5.6 6.7 c -1.9 -2.1 -3.8 -4.3 -5.6 -6.7 z m -12.4 -10.3 c 1 1.7 1.9 3.3 3 4.9 c -3.1 -0.4 -6 -0.9 -8.8 -1.5 c 0.9 -2.7 1.9 -5.5 3.1 -8.3 c 0.8 1.6 1.7 3.3 2.7 4.9 z m -5.8 -24.1 c 2.8 -0.6 5.7 -1.1 8.8 -1.5 c -1 1.6 -2 3.2 -3 4.9 c -1 1.7 -1.9 3.3 -2.7 5 c -1.3 -2.9 -2.3 -5.7 -3.1 -8.4 z m 5.5 13.7 c 1.3 -2.7 2.7 -5.4 4.3 -8.1 c 1.5 -2.6 3.2 -5.2 4.9 -7.8 c 3 -0.2 6 -0.3 9.1 -0.3 c 3.2 0 6.2 0.1 9.1 0.3 c 1.8 2.6 3.4 5.2 4.9 7.8 c 1.6 2.7 3 5.4 4.3 8.1 c -1.3 2.7 -2.7 5.4 -4.3 8.1 c -1.5 2.6 -3.2 5.2 -4.9 7.8 c -3 0.2 -6 0.3 -9.1 0.3 c -3.2 0 -6.2 -0.1 -9.1 -0.3 c -1.8 -2.6 -3.4 -5.2 -4.9 -7.8 c -1.6 -2.7 -3 -5.4 -4.3 -8.1 z m 39.1 -5.4 l -2.7 -5 c -1 -1.7 -1.9 -3.3 -3 -4.9 c 3.1 0.4 6 0.9 8.8 1.5 c -0.9 2.8 -1.9 5.6 -3.1 8.4 z m 0 10.8 c 1.2 2.8 2.2 5.6 3.1 8.3 c -2.8 0.6 -5.7 1.1 -8.8 1.5 c 1 -1.6 2 -3.2 3 -4.9 c 0.9 -1.5 1.8 -3.2 2.7 -4.9 z m 2.3 34.7 c -0.8 0.5 -1.8 0.7 -2.9 0.7 c -4.9 0 -11 -4 -17 -10 c 2.9 -3.1 5.7 -6.6 8.5 -10.5 c 4.7 -0.4 9.2 -1.1 13.4 -2.1 c 0.5 1.8 0.8 3.6 1.1 5.4 c 1.4 8.5 0.3 14.6 -3.1 16.5 z m 5.2 -52.7 c 11.2 3.2 17.9 8.1 17.9 12.6 c 0 3.9 -4.6 7.8 -12.7 10.9 c -1.6 0.6 -3.4 1.2 -5.2 1.7 c -1.3 -4.1 -2.9 -8.3 -4.9 -12.6 c 2 -4.3 3.7 -8.5 4.9 -12.6 z m -8 -28.2 c 1.1 0 2 0.2 2.9 0.7 c 3.3 1.9 4.5 7.9 3.1 16.5 c -0.3 1.7 -0.7 3.5 -1.1 5.4 c -4.2 -0.9 -8.7 -1.6 -13.4 -2.1 c -2.7 -3.9 -5.6 -7.4 -8.5 -10.5 c 6 -5.9 12.1 -10 17 -10 z m -14.7 20.1 c -1.8 -0.1 -3.7 -0.1 -5.6 -0.1 s -3.8 0 -5.6 0.1 c 1.8 -2.4 3.7 -4.6 5.6 -6.7 c 1.9 2.1 3.8 4.4 5.6 6.7 z m -28.7 -19.4 c 0.8 -0.5 1.8 -0.7 2.9 -0.7 c 4.9 0 11 4 17 10 c -2.9 3.1 -5.7 6.6 -8.5 10.5 c -4.7 0.4 -9.2 1.1 -13.4 2.1 c -0.5 -1.8 -0.8 -3.6 -1.1 -5.4 c -1.4 -8.5 -0.3 -14.5 3.1 -16.5 z m -5.2 52.7 c -11.2 -3.2 -17.9 -8.1 -17.9 -12.6 c 0 -3.9 4.6 -7.8 12.7 -10.9 c 1.6 -0.6 3.4 -1.2 5.2 -1.7 c 1.3 4.1 2.9 8.3 4.9 12.6 c -2 4.3 -3.7 8.6 -4.9 12.6 z m 2.1 11 c 0.3 -1.7 0.7 -3.5 1.1 -5.4 c 4.2 0.9 8.7 1.6 13.4 2.1 c 2.7 3.9 5.6 7.4 8.5 10.5 c -6 5.9 -12.1 10 -17 10 c -1.1 0 -2 -0.2 -2.9 -0.7 c -3.4 -1.9 -4.5 -8 -3.1 -16.5 z M 33.6 112.3 c 2.2 -2.7 2.3 -5.7 1.1 -8.7 c -1.2 -3 -3.7 -4.4 -6.8 -4.5 c -3.7 -0.1 -7.5 0 -11.2 0 h -0.7 v 25.9 h 3 v -9.8 h 4.7 c 0.6 0 1.1 0.2 1.4 0.7 l 6 9.3 c 0.1 0.2 0.4 0.5 0.6 0.5 h 3.9 c -2.4 -3.7 -4.7 -7.2 -7.1 -10.8 c 2.1 -0.3 3.9 -1 5.1 -2.6 z m -14.6 -0.2 v -9.9 h 1.1 c 2.3 0 4.7 -0.1 7 0.1 c 2.7 0.1 4.6 2.2 4.6 4.9 s -2.2 4.8 -4.9 4.9 c -2.4 0.1 -4.8 0 -7.8 0 z M 57.7 113.4 c -1.6 -7 -8 -8.8 -12.9 -6.6 c -3.8 1.7 -5.5 5 -5.6 9.1 c -0.1 3.1 0.8 5.9 3.2 8 c 2.7 2.4 6 2.7 9.4 2.1 c 1.9 -0.4 3.6 -1.3 4.9 -2.7 c -0.5 -0.7 -1 -1.4 -1.5 -2 c -2.8 2.4 -5.9 3.2 -9.3 1.6 c -2.2 -1.1 -3.3 -3.8 -3.5 -5.8 h 15.5 v -1.3 c 0.1 -0.9 0 -1.7 -0.2 -2.4 z m -15.1 1.6 c -0.3 -3 2.7 -6.2 6 -6.2 c 3.8 -0.1 6.2 2.2 6.3 6.2 h -12.3 z M 73.3 106.3 c -1.5 -0.3 -3.1 -0.4 -4.6 -0.3 c -2.4 0.2 -4.5 1.3 -6.2 3.1 c 0.5 0.7 0.9 1.4 1.5 2.2 c 0.2 -0.2 0.4 -0.4 0.6 -0.5 c 1.6 -1.5 3.5 -2.3 5.8 -2.1 c 1.8 0.1 3.5 0.7 4 2.5 c 0.4 1.4 0.3 2.9 0.4 4.4 c -0.3 0 -0.4 -0.1 -0.5 -0.2 c -2.4 -2 -5.1 -2.4 -8 -1.7 c -2.7 0.7 -4.4 2.8 -4.6 5.5 c -0.2 3.1 1.2 5.4 3.9 6.5 c 1.7 0.7 3.6 0.7 5.4 0.3 c 1.4 -0.3 2 -1.1 4 -2.2 v 1.3 h 2.8 c 0 -4 0.1 -8.9 0 -13.5 c 0 -2.9 -1.7 -4.7 -4.5 -5.3 z m 1.4 12.6 c -0.1 0.3 0 0.6 0 0.9 c 0 2.1 -0.5 2.8 -2.5 3.6 c -1.4 0.5 -2.9 0.7 -4.4 0.2 c -1.7 -0.5 -2.9 -2 -2.9 -3.7 c -0.1 -1.7 1 -3.4 2.7 -3.9 c 2.3 -0.8 4.4 -0.3 6.3 1.1 c 0.6 0.5 1 1 0.8 1.8 z M 90.3 109 c 2.6 -0.8 5 -0.3 6.8 1.9 l 0.3 0.2 c 0.7 -0.6 1.3 -1.2 2.1 -1.9 c -0.3 -0.3 -0.4 -0.5 -0.6 -0.8 c -2.9 -3.1 -8.6 -3.5 -12.1 -1 c -4.9 3.6 -4.8 10.6 -2.4 14.3 c 2.3 3.5 5.6 4.7 9.5 4.2 c 2.3 -0.3 4.2 -1.4 5.7 -3.3 c -0.7 -0.6 -1.4 -1.2 -2.1 -1.9 c -0.2 0.2 -0.3 0.3 -0.4 0.5 c -2.7 3 -7.2 2.7 -9.6 -0.5 c -1.4 -1.9 -1.7 -4.1 -1.3 -6.3 c 0.2 -2.5 1.5 -4.5 4.1 -5.4 z M 111.1 122.6 c -0.2 0.1 -0.3 0.2 -0.3 0.2 c -0.8 0.6 -1.6 0.7 -2.5 0.4 c -0.9 -0.4 -1 -1.2 -1.1 -2 v -11.4 c 0 -0.2 0 0.2 0.1 -0.8 h 3.8 v -3 h -4 v -5 h -3 v 5.4 h -2.6 c -0.2 0 -0.5 0.2 -0.5 0.4 c -0.1 0.7 0 1.2 0 2.2 h 3.2 v 12.799999999999999 c 0 1.6 0.4 3 1.8 3.8 c 1.5 0.9 4.4 0.7 5.7 -0.4 c 0.2 -0.1 0.3 -0.5 0.3 -0.6 c -0.3 -0.6 -0.6 -1.3 -0.9 -2 z" stroke-linecap="round" />
</g>
</g>
</g>
</svg>