<svg xmlns="http://www.w3.org/2000/svg" xmlns:xlink="http://www.w3.org/1999/xlink" viewBox="0,0,256,256" width="96px" height="96px" fill-rule="nonzero"><g transform="translate(10.66667,10.66667) scale(0.91667,0.91667)"><g fill="none" fill-rule="nonzero" stroke="none" stroke-width="1" stroke-linecap="butt" stroke-linejoin="miter" stroke-miterlimit="10" stroke-dasharray="" stroke-dashoffset="0" font-family="none" font-weight="none" font-size="none" text-anchor="none" style="mix-blend-mode: normal"><g transform="translate(0,-25.86667) scale(5.33333,5.33333)"><path d="M43.982,23.635c0.069,-4.261 -0.891,-9.328 -2.891,-15.273l-1.568,-4.662l-2.13,4.433c-0.114,0.237 -0.244,0.469 -0.38,0.698c-3.499,-3.004 -8.039,-4.831 -13.013,-4.831c-11.046,0 -20,8.954 -20,20c0,11.046 8.954,20 20,20c11.046,0 20,-8.954 20,-20c0,-0.123 -0.016,-0.242 -0.018,-0.365z" fill="#f7f7f7"></path><path d="M39.385,32.558c-3.123,4.302 -8.651,4.533 -13.854,4.442h-6.781h-1.938c4.428,-1.593 7.063,-1.972 9.754,-3.4c5.068,-2.665 10.078,-8.496 11.121,-14.562c-1.93,5.836 -7.779,10.85 -13.109,12.889c-3.652,1.393 -10.248,2.745 -10.248,2.745l-0.267,-0.145c-4.49,-2.259 -4.626,-12.313 3.537,-15.559c3.574,-1.423 6.993,-0.641 10.854,-1.593c4.122,-1.012 8.89,-4.208 10.83,-8.375c2.172,6.667 4.786,17.106 0.101,23.558zM15.668,38.445c-0.282,0.35 -0.713,0.555 -1.163,0.555c-0.823,0 -1.495,-0.677 -1.495,-1.5c0,-0.823 0.677,-1.5 1.495,-1.5c0.341,0 0.677,0.118 0.941,0.336c0.64,0.519 0.74,1.469 0.222,2.109z" fill="#ffffff"></path></g></g><g fill="#ffffff" fill-rule="nonzero" stroke="none" stroke-width="1" stroke-linecap="butt" stroke-linejoin="miter" stroke-miterlimit="10" stroke-dasharray="" stroke-dashoffset="0" font-family="none" font-weight="none" font-size="none" text-anchor="none" style="mix-blend-mode: normal"><g id="text"><path d="M24,246.305v0c0,-1.03333 -0.36333,-1.82667 -1.09,-2.38c-0.72667,-0.55333 -2.04,-1.13667 -3.94,-1.75c-1.89333,-0.61333 -3.39333,-1.21667 -4.5,-1.81v0c-3.01333,-1.63333 -4.52,-3.82667 -4.52,-6.58v0c0,-1.43333 0.40333,-2.71333 1.21,-3.84c0.80667,-1.12667 1.96667,-2.00333 3.48,-2.63c1.51333,-0.63333 3.21333,-0.95 5.1,-0.95v0c1.89333,0 3.58,0.34333 5.06,1.03c1.48667,0.68667 2.64,1.65333 3.46,2.9c0.82,1.25333 1.23,2.67667 1.23,4.27v0h-5.47c0,-1.21333 -0.38333,-2.15667 -1.15,-2.83c-0.76667,-0.68 -1.84,-1.02 -3.22,-1.02v0c-1.34,0 -2.38,0.28333 -3.12,0.85c-0.74,0.56667 -1.11,1.31 -1.11,2.23v0c0,0.86667 0.43333,1.59 1.3,2.17c0.86667,0.58667 2.14667,1.13333 3.84,1.64v0c3.10667,0.94 5.37333,2.10333 6.8,3.49c1.42,1.38 2.13,3.10333 2.13,5.17v0c0,2.3 -0.87,4.10333 -2.61,5.41c-1.73333,1.30667 -4.07333,1.96 -7.02,1.96v0c-2.04,0 -3.89667,-0.37333 -5.57,-1.12c-1.68,-0.74667 -2.96,-1.77 -3.84,-3.07c-0.88,-1.30667 -1.32,-2.81667 -1.32,-4.53v0h5.48c0,2.93333 1.75,4.4 5.25,4.4v0c1.30667,0 2.32333,-0.26667 3.05,-0.8c0.72667,-0.52667 1.09,-1.26333 1.09,-2.21zM43.45,243.915h-4.79v9.35h-5.47v-26.54h10.35c1.99333,0 3.74667,0.36667 5.26,1.1c1.51333,0.72667 2.67667,1.76 3.49,3.1c0.82,1.34667 1.23,2.87667 1.23,4.59v0c0,2.6 -0.89,4.65 -2.67,6.15c-1.78667,1.5 -4.25333,2.25 -7.4,2.25zM38.66,231.155v8.33h4.88c1.44667,0 2.55,-0.34 3.31,-1.02c0.76,-0.68 1.14,-1.65333 1.14,-2.92v0c0,-1.3 -0.38333,-2.35 -1.15,-3.15c-0.76,-0.8 -1.81667,-1.21333 -3.17,-1.24v0zM72.07,253.265l-4.97,-9.71h-4.36v9.71h-5.47v-26.54h9.86c3.14,0 5.56,0.7 7.26,2.1c1.7,1.39333 2.55,3.36667 2.55,5.92v0c0,1.81333 -0.39333,3.32333 -1.18,4.53c-0.78,1.21333 -1.96667,2.17667 -3.56,2.89v0l5.74,10.85v0.25zM62.74,231.155v7.97h4.41c1.37333,0 2.43667,-0.35 3.19,-1.05c0.75333,-0.7 1.13,-1.66333 1.13,-2.89v0c0,-1.25333 -0.35333,-2.23667 -1.06,-2.95c-0.71333,-0.72 -1.80667,-1.08 -3.28,-1.08v0zM86.91,226.725v26.54h-5.47v-26.54zM113.56,226.725v26.54h-5.47l-10.64,-17.46v17.46h-5.47v-26.54h5.47l10.66,17.5v-17.5zM139.34,239.325v10.59c-0.98667,1.18 -2.38,2.09333 -4.18,2.74c-1.79333,0.65333 -3.78333,0.98 -5.97,0.98v0c-2.3,0 -4.31667,-0.50333 -6.05,-1.51c-1.73333,-1 -3.07,-2.45333 -4.01,-4.36c-0.94,-1.90667 -1.42333,-4.15 -1.45,-6.73v0v-1.8c0,-2.65333 0.44667,-4.94667 1.34,-6.88c0.89333,-1.94 2.18333,-3.42333 3.87,-4.45c1.68,-1.02667 3.65,-1.54 5.91,-1.54v0c3.14667,0 5.61,0.75 7.39,2.25c1.77333,1.5 2.82333,3.68333 3.15,6.55v0h-5.32c-0.24667,-1.52 -0.78667,-2.63 -1.62,-3.33c-0.83333,-0.70667 -1.97667,-1.06 -3.43,-1.06v0c-1.86,0 -3.27667,0.69667 -4.25,2.09c-0.97333,1.4 -1.46667,3.48 -1.48,6.24v0v1.69c0,2.78667 0.53,4.89 1.59,6.31c1.05333,1.42 2.60333,2.13 4.65,2.13v0c2.05333,0 3.51667,-0.43667 4.39,-1.31v0v-4.57h-4.98v-4.03zM163.38,253.265h-10.31v-26.54h9.29c3.22,0 5.66333,0.61667 7.33,1.85c1.66667,1.23333 2.5,3.04333 2.5,5.43v0c0,1.3 -0.33333,2.44333 -1,3.43c-0.67333,0.99333 -1.60333,1.72 -2.79,2.18v0c1.36,0.34 2.43,1.02667 3.21,2.06c0.78667,1.03333 1.18,2.29667 1.18,3.79v0c0,2.55333 -0.81333,4.48667 -2.44,5.8c-1.63333,1.31333 -3.95667,1.98 -6.97,2zM163.55,241.715h-5.02v7.16h4.69c1.28667,0 2.29333,-0.30667 3.02,-0.92c0.72,-0.61333 1.08,-1.46 1.08,-2.54v0c0,-2.43333 -1.25667,-3.66667 -3.77,-3.7zM158.53,231.155v6.69h4.05c2.76,-0.04667 4.14,-1.14667 4.14,-3.3v0c0,-1.2 -0.35,-2.06667 -1.05,-2.6c-0.7,-0.52667 -1.80333,-0.79 -3.31,-0.79v0zM198.69,239.415v1.18c0,2.61333 -0.46,4.90667 -1.38,6.88c-0.92667,1.96667 -2.25,3.48333 -3.97,4.55c-1.72,1.07333 -3.69,1.61 -5.91,1.61v0c-2.2,0 -4.16333,-0.53 -5.89,-1.59c-1.72667,-1.05333 -3.06333,-2.56333 -4.01,-4.53c-0.94667,-1.96 -1.42667,-4.21667 -1.44,-6.77v0v-1.31c0,-2.61333 0.47,-4.91333 1.41,-6.9c0.94,-1.98667 2.27,-3.51333 3.99,-4.58c1.72,-1.06 3.68667,-1.59 5.9,-1.59c2.21333,0 4.18,0.53 5.9,1.59c1.72,1.06667 3.05,2.59333 3.99,4.58c0.94,1.98667 1.41,4.28 1.41,6.88zM193.15,240.695v-1.3c0,-2.78 -0.49667,-4.89333 -1.49,-6.34c-1,-1.44667 -2.42333,-2.17 -4.27,-2.17v0c-1.83333,0 -3.25,0.71333 -4.25,2.14c-0.99333,1.42667 -1.49667,3.52 -1.51,6.28v0v1.29c0,2.71333 0.5,4.81667 1.5,6.31c0.99333,1.49333 2.42667,2.24 4.3,2.24v0c1.83333,0 3.24333,-0.72 4.23,-2.16c0.98,-1.44 1.47667,-3.53667 1.49,-6.29zM224.47,239.415v1.18c0,2.61333 -0.46333,4.90667 -1.39,6.88c-0.92,1.96667 -2.24,3.48333 -3.96,4.55c-1.72,1.07333 -3.69333,1.61 -5.92,1.61v0c-2.2,0 -4.16,-0.53 -5.88,-1.59c-1.72667,-1.05333 -3.06667,-2.56333 -4.02,-4.53c-0.94667,-1.96 -1.42667,-4.21667 -1.44,-6.77v0v-1.31c0,-2.61333 0.47333,-4.91333 1.42,-6.9c0.94,-1.98667 2.27,-3.51333 3.99,-4.58c1.72,-1.06 3.68667,-1.59 5.9,-1.59c2.20667,0 4.17,0.53 5.89,1.59c1.72,1.06667 3.05333,2.59333 4,4.58c0.94,1.98667 1.41,4.28 1.41,6.88zM218.93,240.695v-1.3c0,-2.78 -0.5,-4.89333 -1.5,-6.34c-0.99333,-1.44667 -2.41333,-2.17 -4.26,-2.17v0c-1.84,0 -3.25667,0.71333 -4.25,2.14c-1,1.42667 -1.50333,3.52 -1.51,6.28v0v1.29c0,2.71333 0.49667,4.81667 1.49,6.31c1,1.49333 2.43333,2.24 4.3,2.24v0c1.84,0 3.25,-0.72 4.23,-2.16c0.98667,-1.44 1.48667,-3.53667 1.5,-6.29zM246.87,226.725v4.43h-8.13v22.11h-5.47v-22.11h-8.02v-4.43z"></path></g></g></g></svg>